<svg version="1" xmlns="http://www.w3.org/2000/svg" width="933.333" height="933.333" viewBox="0 0 700.000000 700.000000"><path d="M338.8 66.5c-.2.1-11.5.6-25.3.9-13.7.4-28.6.9-33 1.1-4.4.2-16.1.6-26 1-9.9.4-20.7.8-24 1-3.3.2-12.5.6-20.5 1-8 .3-17.6.8-21.5 1-3.8.3-11.7.7-17.5 1-5.8.3-13.4.8-17 1-3.6.2-11.7.7-18 1-6.3.3-14.2.8-17.5 1-3.3.2-10.5.7-16 1-5.5.4-10.2.8-10.4 1-.4.4 5.8 12.9 19.4 39 3.4 6.6 12.4 24.1 20 39 7.6 14.8 17.3 33.7 21.5 42 7.3 14.1 11.7 22.6 40 78 6.2 12.1 15.4 30.1 20.5 40 9.1 17.7 17.7 34.4 39 76 5.9 11.5 14.9 29.1 20 39 5.1 9.9 14 27.2 19.7 38.5 27.9 54.3 32.5 63.4 38.8 75.5 7.6 14.6 39.6 77.3 42 82.1 1.8 3.7 6.6 5.3 18 6.1 6 .3 8.2.1 11-1.4 4-2 7.5-7.9 8.4-13.8.7-4.4.8-19.4.2-24-.2-1.7-.7-5.7-1.1-9-.4-3.2-.9-6.8-1.1-8-.2-1.1-.6-3.6-.9-5.5-.5-3.8-.8-5-3.5-19-2.2-11.2-5.3-25.1-8.1-37-1.2-4.7-2.2-9.2-2.4-10-.9-4.2-15.7-62.5-16-63-.2-.4-.7-2-1-3.6-.3-1.6-1.4-6.3-2.5-10.4-1.2-4.1-4-14.9-6.4-24-7.5-28.3-9.6-36.3-11.1-41.5-.8-2.8-4.2-15.1-7.5-27.5s-6.5-23.9-7-25.7c-.6-1.8-1.3-4-1.5-5-.2-1-2-7.7-3.9-14.8-2-7.2-4.3-15.7-5.2-19-.9-3.3-2.2-8.3-3-11-6.7-23.9-14.1-51-14-51.1.1-.1 3.5-.4 7.7-.7 4.1-.3 8.2-.8 9-1.1.7-.3 3.3-.7 5.5-1 2.3-.3 6.1-1 8.5-1.5 2.4-.6 8.7-2 13.9-3.1 77-17.1 166.6-46.5 211.8-69.7 37-18.9 47-35 28.7-45.8-4.7-2.7-15.6-7.1-19.7-7.9-1.3-.2-4.5-1-7.3-1.6-2.7-.6-5.7-1.3-6.5-1.5-2-.4-15.6-2.4-20.4-3-2.2-.3-5.1-.7-6.5-.9-1.4-.3-6.4-.8-11.1-1.1-4.7-.4-9.2-.8-10-1-.8-.2-7.3-.6-14.5-1-7.1-.4-15-1-17.5-1.2-5-.5-146.6-1.3-147.2-.8z"/></svg>